<svg xmlns="http://www.w3.org/2000/svg" width="421.349" height="156.069" viewBox="0 0 421.349 156.069"><defs><style>.a{fill:#719333;}.b{fill:#26462c;}</style></defs><g transform="translate(-116.754 -101.866)"><path class="a" d="M120.094,21.013H109.822a6.1,6.1,0,0,0-6.142,6.05v2.521a51.462,51.462,0,0,0-28.5-8.571c-28.175,0-51.1,22.542-51.1,50.257S47,121.541,75.18,121.541a51.345,51.345,0,0,0,28.5-8.571v13.278c0,.179.015.378.019.577h-.019a28.567,28.567,0,0,1-54.5,11.45l-.625-1.934a6.061,6.061,0,0,0-6.05-5.013H31.428a6.021,6.021,0,0,0-6.094,5.895,5.922,5.922,0,0,0,.315,1.842,51.014,51.014,0,0,0,49.53,38.016c28.161,0,51.062-22.557,51.062-50.257h-.034a4.83,4.83,0,0,0,.034-.577V27.063a6.113,6.113,0,0,0-6.147-6.05M75.18,99.334A28.328,28.328,0,0,1,46.665,71.27c0-15.455,12.793-28.04,28.515-28.04a28.055,28.055,0,1,1,0,56.1" transform="translate(92.67 80.853)"/><path class="b" d="M73.908,52.169A22.5,22.5,0,0,1,52.4,36.317c-.606-2.031-.621-4.159,1.449-4.78,2.07-.577,2.817.567,3.437,2.628C59.1,40.239,67.48,44.471,73.908,44.471s14.791-4.232,16.6-10.306c.63-2.06,1.634-3.2,3.7-2.628,2.089.621,1.813,2.749,1.2,4.78a22.493,22.493,0,0,1-21.5,15.852" transform="translate(200.253 120.775)"/><path class="b" d="M142.024,21.013H131.776a6.1,6.1,0,0,0-6.157,6.05v2.521a51.442,51.442,0,0,0-28.5-8.571c-28.175,0-51.081,22.542-51.081,50.257s22.906,50.271,51.081,50.271a51.326,51.326,0,0,0,28.5-8.571v2.385a6.118,6.118,0,0,0,6.157,6.045h10.248a6.122,6.122,0,0,0,6.162-6.045V27.063a6.107,6.107,0,0,0-6.162-6.05M97.114,99.334A28.331,28.331,0,0,1,68.6,71.27c0-15.455,12.8-28.04,28.515-28.04s28.5,12.585,28.5,28.04a28.323,28.323,0,0,1-28.5,28.064" transform="translate(177.125 80.853)"/><path class="a" d="M185.911,21.013H175.648a6.1,6.1,0,0,0-6.132,6.05v2.521a51.482,51.482,0,0,0-28.51-8.571c-28.161,0-51.076,22.542-51.076,50.257s22.915,50.271,51.076,50.271a51.365,51.365,0,0,0,28.51-8.571v2.385a6.115,6.115,0,0,0,6.132,6.045h10.263a6.134,6.134,0,0,0,6.162-6.045V27.063a6.12,6.12,0,0,0-6.162-6.05m-44.9,78.321a28.055,28.055,0,1,1,0-56.1c15.692,0,28.51,12.585,28.51,28.04S156.7,99.334,141.006,99.334" transform="translate(346.031 80.853)"/><path class="a" d="M119.049,21.013a51.367,51.367,0,0,0-28.5,8.571V27.063a6.1,6.1,0,0,0-6.137-6.05H74.12a6.1,6.1,0,0,0-6.137,6.05v88.288a6.114,6.114,0,0,0,6.137,6.05H84.407a6.117,6.117,0,0,0,6.137-6.05V71.275a28.5,28.5,0,0,1,57,0v44.076a6.129,6.129,0,0,0,6.162,6.05h10.272a6.128,6.128,0,0,0,6.142-6.05V71.275c0-27.72-22.9-50.262-51.071-50.262" transform="translate(261.584 80.853)"/><path class="a" d="M94.182,55.965a3.325,3.325,0,0,1-.456,1.609,5.465,5.465,0,0,1-1.4,1.639,7.374,7.374,0,0,1-2.356,1.256,10.283,10.283,0,0,1-3.219.465,7.847,7.847,0,0,1-5.924-2.177,7.961,7.961,0,0,1-2.133-5.846,9.548,9.548,0,0,1,.974-4.392,6.871,6.871,0,0,1,2.821-2.947,8.9,8.9,0,0,1,4.4-1.047,8.771,8.771,0,0,1,2.928.465,7.789,7.789,0,0,1,2.254,1.178,5.644,5.644,0,0,1,1.411,1.551,2.915,2.915,0,0,1,.49,1.522,1.628,1.628,0,0,1-.548,1.231,1.866,1.866,0,0,1-1.323.5,1.311,1.311,0,0,1-.848-.257,3.855,3.855,0,0,1-.766-.829A5.866,5.866,0,0,0,88.912,48.2a3.887,3.887,0,0,0-5,.839,5.987,5.987,0,0,0-1.11,3.815,7.33,7.33,0,0,0,.286,2.089,4.788,4.788,0,0,0,.824,1.624,3.479,3.479,0,0,0,1.309,1.023,4.02,4.02,0,0,0,1.673.344,3.914,3.914,0,0,0,2.118-.553,4.939,4.939,0,0,0,1.551-1.726,4.018,4.018,0,0,1,.814-1.062,1.569,1.569,0,0,1,1.062-.383,1.6,1.6,0,0,1,1.251.567,1.789,1.789,0,0,1,.494,1.188" transform="translate(302.793 171.318)"/><path class="a" d="M94.669,53.745H86.655a5.294,5.294,0,0,0,.567,2.429,3.849,3.849,0,0,0,1.44,1.58,4.017,4.017,0,0,0,2.012.533,5.006,5.006,0,0,0,1.348-.165,4.73,4.73,0,0,0,1.188-.538,8.586,8.586,0,0,0,1.047-.771c.32-.281.732-.654,1.241-1.13a1.343,1.343,0,0,1,.9-.262,1.486,1.486,0,0,1,1.023.334,1.2,1.2,0,0,1,.388.955A2.557,2.557,0,0,1,97.369,58a4.937,4.937,0,0,1-1.309,1.406,7.693,7.693,0,0,1-2.215,1.12,9.648,9.648,0,0,1-3.044.436,8.234,8.234,0,0,1-6.137-2.225,8.131,8.131,0,0,1-2.2-6.006,10.184,10.184,0,0,1,.543-3.316,7.412,7.412,0,0,1,1.576-2.627,6.873,6.873,0,0,1,2.555-1.682,9.328,9.328,0,0,1,3.36-.582,8.132,8.132,0,0,1,4.121,1,6.707,6.707,0,0,1,3.432,5.793c0,1.018-.291,1.672-.882,1.973a5.64,5.64,0,0,1-2.5.451m-8.013-2.288h7.422a4.81,4.81,0,0,0-1.125-3.1,3.392,3.392,0,0,0-2.589-1.023,3.281,3.281,0,0,0-2.511,1.042,5.112,5.112,0,0,0-1.2,3.078" transform="translate(317.315 171.322)"/><path class="a" d="M90.488,55.114v3.369a2.587,2.587,0,0,1-.582,1.832,1.947,1.947,0,0,1-1.488.625,1.849,1.849,0,0,1-1.454-.63,2.568,2.568,0,0,1-.577-1.828V47.246c0-1.8.674-2.715,2-2.715a1.7,1.7,0,0,1,1.483.635,3.644,3.644,0,0,1,.5,1.876,6.987,6.987,0,0,1,1.493-1.876,3.166,3.166,0,0,1,2.065-.635,5.372,5.372,0,0,1,2.521.635,1.915,1.915,0,0,1,1.207,1.692,1.716,1.716,0,0,1-1.639,1.692,6.01,6.01,0,0,1-1.086-.267,4.9,4.9,0,0,0-1.517-.271,2.182,2.182,0,0,0-1.479.465,2.842,2.842,0,0,0-.887,1.382,9.84,9.84,0,0,0-.441,2.172c-.073.844-.116,1.871-.116,3.083" transform="translate(332.398 171.345)"/><path class="a" d="M104.337,55.965a3.335,3.335,0,0,1-.461,1.609,5.587,5.587,0,0,1-1.4,1.639,7.349,7.349,0,0,1-2.361,1.256,10.116,10.116,0,0,1-3.2.465,7.448,7.448,0,0,1-8.076-8.023,9.37,9.37,0,0,1,.984-4.392,6.984,6.984,0,0,1,2.821-2.947,9.654,9.654,0,0,1,7.335-.582,7.606,7.606,0,0,1,2.245,1.178,5.722,5.722,0,0,1,1.411,1.551,2.925,2.925,0,0,1,.494,1.522,1.6,1.6,0,0,1-.553,1.231,1.874,1.874,0,0,1-1.323.5,1.335,1.335,0,0,1-.853-.257,3.853,3.853,0,0,1-.751-.829A6.217,6.217,0,0,0,99.078,48.2a3.9,3.9,0,0,0-5.013.839,5.958,5.958,0,0,0-1.11,3.815,7.329,7.329,0,0,0,.286,2.089,4.62,4.62,0,0,0,.824,1.624,3.533,3.533,0,0,0,1.314,1.023,4.039,4.039,0,0,0,1.687.344,3.892,3.892,0,0,0,2.1-.553,4.884,4.884,0,0,0,1.546-1.726,4.042,4.042,0,0,1,.829-1.062,1.534,1.534,0,0,1,1.062-.383,1.566,1.566,0,0,1,1.236.567,1.727,1.727,0,0,1,.5,1.188" transform="translate(341.852 171.318)"/><path class="a" d="M103.838,58.685a13.047,13.047,0,0,1-2.88,1.706,8.064,8.064,0,0,1-3.117.572,6.037,6.037,0,0,1-2.773-.616,4.63,4.63,0,0,1-1.837-1.663,4.276,4.276,0,0,1-.635-2.278,3.982,3.982,0,0,1,1.057-2.817,5.4,5.4,0,0,1,2.938-1.571c.252-.048.9-.189,1.934-.4s1.9-.393,2.647-.567,1.537-.383,2.4-.625a4.192,4.192,0,0,0-.659-2.337,2.957,2.957,0,0,0-2.395-.751,5.127,5.127,0,0,0-2.351.422,3.87,3.87,0,0,0-1.357,1.294,11.381,11.381,0,0,1-.79,1.13,1.308,1.308,0,0,1-1,.271,1.724,1.724,0,0,1-1.193-.431,1.443,1.443,0,0,1-.5-1.125,3.364,3.364,0,0,1,.771-2.06,5.367,5.367,0,0,1,2.375-1.658,10.958,10.958,0,0,1,4.048-.654,11.852,11.852,0,0,1,4.256.63,3.965,3.965,0,0,1,2.181,1.992,8.58,8.58,0,0,1,.63,3.6v2.4c-.01.664-.015,1.411-.029,2.211a8.262,8.262,0,0,0,.378,2.371,7.118,7.118,0,0,1,.388,1.59,1.486,1.486,0,0,1-.591,1.134,1.975,1.975,0,0,1-1.338.509,1.824,1.824,0,0,1-1.251-.587,8.15,8.15,0,0,1-1.3-1.692m-.267-5.837a21.462,21.462,0,0,1-2.623.688c-1.144.238-1.944.422-2.38.519a3.33,3.33,0,0,0-1.26.674,1.674,1.674,0,0,0-.6,1.377,2,2,0,0,0,.7,1.566,2.649,2.649,0,0,0,1.837.64,4.867,4.867,0,0,0,2.254-.519,3.667,3.667,0,0,0,1.508-1.357,5.983,5.983,0,0,0,.562-3.01Z" transform="translate(356.289 171.322)"/><path class="a" d="M110.116,63.388V63a11.455,11.455,0,0,1-1.629,1.512,6.348,6.348,0,0,1-1.74.887,6.748,6.748,0,0,1-2.055.3A6.194,6.194,0,0,1,99.8,63.33a7.871,7.871,0,0,1-1.391-2.671,11.287,11.287,0,0,1-.47-3.33,8.6,8.6,0,0,1,1.876-5.9,6.3,6.3,0,0,1,4.94-2.109,6.626,6.626,0,0,1,2.986.6,8.234,8.234,0,0,1,2.375,1.842V45.8a2.911,2.911,0,0,1,.5-1.871,1.719,1.719,0,0,1,1.43-.635,1.782,1.782,0,0,1,1.43.582,2.521,2.521,0,0,1,.514,1.716v17.8a2.469,2.469,0,0,1-.548,1.731,1.818,1.818,0,0,1-1.4.577,1.8,1.8,0,0,1-1.391-.6,2.429,2.429,0,0,1-.543-1.706m-8.062-5.924a6.784,6.784,0,0,0,.514,2.8,3.908,3.908,0,0,0,1.42,1.731,3.483,3.483,0,0,0,1.963.587,3.651,3.651,0,0,0,1.978-.557,3.809,3.809,0,0,0,1.43-1.7,6.871,6.871,0,0,0,.528-2.855,6.784,6.784,0,0,0-.528-2.773,4.185,4.185,0,0,0-1.445-1.774,3.457,3.457,0,0,0-1.992-.606,3.385,3.385,0,0,0-2.007.621,3.962,3.962,0,0,0-1.372,1.808,6.9,6.9,0,0,0-.49,2.724" transform="translate(376.844 166.586)"/><path class="a" d="M114.137,53.745h-8.018a5.421,5.421,0,0,0,.572,2.429,3.764,3.764,0,0,0,1.445,1.58,3.978,3.978,0,0,0,2.012.533,5.082,5.082,0,0,0,1.348-.165,4.611,4.611,0,0,0,1.168-.538,8.4,8.4,0,0,0,1.062-.771c.315-.281.732-.654,1.236-1.13a1.361,1.361,0,0,1,.9-.262,1.494,1.494,0,0,1,1.023.334,1.2,1.2,0,0,1,.388.955,2.579,2.579,0,0,1-.431,1.29,5.2,5.2,0,0,1-1.319,1.406,7.476,7.476,0,0,1-2.211,1.12,9.7,9.7,0,0,1-3.049.436,8.249,8.249,0,0,1-6.137-2.225,8.145,8.145,0,0,1-2.186-6.006,9.809,9.809,0,0,1,.538-3.316,7.207,7.207,0,0,1,1.576-2.627,6.873,6.873,0,0,1,2.555-1.682,9.3,9.3,0,0,1,3.364-.582,8.17,8.17,0,0,1,4.121,1,6.643,6.643,0,0,1,2.574,2.579,6.711,6.711,0,0,1,.858,3.214,2,2,0,0,1-.887,1.973,5.64,5.64,0,0,1-2.5.451m-8.018-2.288h7.436a4.839,4.839,0,0,0-1.134-3.1,3.4,3.4,0,0,0-2.594-1.023,3.3,3.3,0,0,0-2.506,1.042,5.113,5.113,0,0,0-1.2,3.078" transform="translate(392.243 171.322)"/><path class="a" d="M109.018,49.237h.456V46.818c0-.659.015-1.163.039-1.532a2.157,2.157,0,0,1,.305-.945,1.749,1.749,0,0,1,.688-.679,1.989,1.989,0,0,1,1.008-.262,2.01,2.01,0,0,1,1.411.582,1.714,1.714,0,0,1,.533.94,8.5,8.5,0,0,1,.112,1.571v2.744h1.5a1.871,1.871,0,0,1,1.323.417,1.313,1.313,0,0,1,.461,1.037,1.156,1.156,0,0,1-.664,1.134,4.194,4.194,0,0,1-1.862.33h-.761v7.407a11.289,11.289,0,0,0,.063,1.459,1.5,1.5,0,0,0,.364.824,1.21,1.21,0,0,0,.95.32,4.588,4.588,0,0,0,.979-.126,5.506,5.506,0,0,1,.96-.121,1.264,1.264,0,0,1,.9.393,1.347,1.347,0,0,1,.383.965,1.649,1.649,0,0,1-1.067,1.5,7.57,7.57,0,0,1-3.117.514,5.356,5.356,0,0,1-2.914-.64,2.963,2.963,0,0,1-1.294-1.765,11.752,11.752,0,0,1-.305-2.991V52.155h-.548a2.014,2.014,0,0,1-1.353-.417,1.369,1.369,0,0,1-.47-1.047,1.284,1.284,0,0,1,.494-1.037,2.089,2.089,0,0,1,1.42-.417" transform="translate(412.109 166.994)"/><path class="a" d="M111.777,47.272a2.208,2.208,0,0,1-1.469-.514,1.833,1.833,0,0,1-.611-1.464,1.81,1.81,0,0,1,.625-1.42,2.134,2.134,0,0,1,1.454-.543,2.22,2.22,0,0,1,1.406.494,1.8,1.8,0,0,1,.621,1.469,1.834,1.834,0,0,1-.6,1.449,2.121,2.121,0,0,1-1.425.528m2.026,4.174V63.105a2.544,2.544,0,0,1-.591,1.828,1.959,1.959,0,0,1-1.483.625,1.844,1.844,0,0,1-1.464-.635,2.694,2.694,0,0,1-.567-1.818V51.563a2.591,2.591,0,0,1,.567-1.808,1.918,1.918,0,0,1,1.464-.606,2.014,2.014,0,0,1,1.483.606,2.314,2.314,0,0,1,.591,1.692" transform="translate(422.09 166.728)"/></g></svg>